<svg width="63" height="52" viewBox="0 0 63 52" fill="none" xmlns="http://www.w3.org/2000/svg">
<g filter="url(#filter0_d_23_150)">
<line x1="32.2067" y1="15.5253" x2="45.0519" y2="5.98583" stroke="#BAEBA9" stroke-width="2" stroke-linecap="round"/>
</g>
<g filter="url(#filter1_d_23_150)">
<path d="M25.6075 16.9764C26.2499 15.8478 27.7807 15.6212 28.7226 16.5153L31.3564 19.0155C31.6754 19.3184 32.0853 19.5076 32.5228 19.5539L35.9858 19.9205C37.4689 20.0775 38.2646 21.7439 37.4544 22.996L35.8964 25.4036C35.6205 25.83 35.5172 26.3453 35.6073 26.845L36.1311 29.7507C36.3751 31.1035 35.213 32.2935 33.8547 32.0817L29.9455 31.4721C29.5451 31.4096 29.1351 31.4703 28.7699 31.6461L25.205 33.362C23.9664 33.9582 22.5094 33.156 22.3509 31.7905L22.0105 28.8577C21.952 28.3533 21.7038 27.89 21.3162 27.5619L19.1276 25.7088C17.9894 24.7451 18.2682 22.9197 19.6422 22.3398L22.8505 20.9857C23.2558 20.8146 23.5933 20.5147 23.8109 20.1324L25.6075 16.9764Z" fill="#F2FA9D"/>
<path d="M26.042 17.2237C26.5238 16.3773 27.672 16.2073 28.3783 16.8779L31.0121 19.3782C31.4109 19.7567 31.9233 19.9933 32.4701 20.0511L35.9332 20.4178C37.0455 20.5355 37.6422 21.7853 37.0346 22.7243L35.4766 25.132C35.1318 25.6649 35.0026 26.3091 35.1152 26.9338L35.6391 29.8394C35.822 30.854 34.9504 31.7465 33.9318 31.5876L30.0226 30.978C29.522 30.9 29.0096 30.9758 28.5531 31.1955L24.9881 32.9115C24.0592 33.3587 22.9664 32.757 22.8476 31.7329L22.5072 28.8001C22.434 28.1695 22.1238 27.5904 21.6393 27.1803L19.4506 25.3272C18.597 24.6045 18.8061 23.2354 19.8366 22.8005L23.0449 21.4463C23.5515 21.2325 23.9735 20.8576 24.2455 20.3798L26.042 17.2237Z" stroke="#A0C8F8"/>
</g>
<g filter="url(#filter2_d_23_150)">
<path d="M9.875 45.8828L9.48438 45.6875C9.35417 45.5052 9.27604 45.2969 9.25 45.0625C9.82292 44.0078 10.3568 42.9206 10.8516 41.8008C11.3464 40.681 11.724 39.5352 11.9844 38.3633C11.6198 37.3477 11.2292 36.3385 10.8125 35.3359C10.3958 34.3333 9.97917 33.3177 9.5625 32.2891C9.58854 32.0807 9.66667 31.8984 9.79688 31.7422C9.97917 31.5859 10.2135 31.5208 10.5 31.5469L10.8906 31.7422C11.2552 32.4974 11.6068 33.2656 11.9453 34.0469C12.2839 34.8151 12.5833 35.5898 12.8438 36.3711C13.2214 35.4596 13.6315 34.5612 14.0742 33.6758C14.5169 32.7773 14.9596 31.8984 15.4023 31.0391C15.6107 30.8568 15.8581 30.7786 16.1445 30.8047L16.5352 31C16.6914 31.2083 16.7565 31.4557 16.7305 31.7422C16.1836 32.8359 15.6497 33.9557 15.1289 35.1016C14.6081 36.2344 14.1263 37.3867 13.6836 38.5586C14.0482 39.6523 14.5039 40.7201 15.0508 41.7617C15.5977 42.8034 16.0273 43.8906 16.3398 45.0234L16.1445 45.4141C15.9622 45.5703 15.7279 45.6354 15.4414 45.6094L15.0508 45.4141C14.7122 44.6849 14.3607 43.9492 13.9961 43.207C13.6315 42.4518 13.2865 41.6966 12.9609 40.9414C12.5964 41.7747 12.2188 42.5885 11.8281 43.3828C11.4375 44.1641 11.0208 44.9323 10.5781 45.6875C10.3958 45.8438 10.1615 45.9089 9.875 45.8828ZM26.1836 46.1562L25.793 45.9609C25.6367 45.6745 25.5326 45.3685 25.4805 45.043C25.4284 44.7174 25.3763 44.3789 25.3242 44.0273C24.6992 44.8216 24.0938 45.3424 23.5078 45.5898C22.9349 45.8372 22.3685 45.9154 21.8086 45.8242C21.2487 45.7331 20.7474 45.4336 20.3047 44.9258C19.862 44.4049 19.5755 43.8646 19.4453 43.3047C19.3151 42.7448 19.224 42.1589 19.1719 41.5469C19.1198 40.9349 19.1068 39.9909 19.1328 38.7148C19.1589 38.2982 19.276 37.9336 19.4844 37.6211C19.6927 37.4388 19.9401 37.3607 20.2266 37.3867L20.6172 37.582C20.7734 37.7904 20.8385 38.0378 20.8125 38.3242C20.6693 39.8867 20.6172 40.9284 20.6562 41.4492C20.7083 41.9701 20.793 42.4453 20.9102 42.875C21.0273 43.3047 21.2292 43.6693 21.5156 43.9688C21.8021 44.2682 22.1536 44.3594 22.5703 44.2422C23 44.125 23.4362 43.7669 23.8789 43.168C24.3216 42.569 24.6081 41.8073 24.7383 40.8828C24.8685 39.9583 25.0638 39.0664 25.3242 38.207C25.5065 38.0508 25.7409 37.9857 26.0273 38.0117L26.418 38.207C26.6263 38.5977 26.6914 39.0534 26.6133 39.5742C26.6393 41.8398 26.7044 43.2656 26.8086 43.8516C26.9128 44.4245 27.0039 44.9974 27.082 45.5703L26.8867 45.9609C26.7044 46.1172 26.4701 46.1823 26.1836 46.1562ZM36.3008 46.0391C36.0924 46.013 35.9102 45.9349 35.7539 45.8047L35.4805 45.375C35.0378 45.5833 34.6146 45.7396 34.2109 45.8438C33.8073 45.9479 33.3581 45.9935 32.8633 45.9805C32.3815 45.9674 31.9193 45.8503 31.4766 45.6289C31.0339 45.4076 30.6237 45.1211 30.2461 44.7695C29.8685 44.4049 29.6211 43.9753 29.5039 43.4805C29.3867 42.9857 29.3542 42.4844 29.4062 41.9766C29.4583 41.4688 29.569 41.013 29.7383 40.6094C29.9076 40.2057 30.168 39.8346 30.5195 39.4961C30.8711 39.1576 31.2878 38.9167 31.7695 38.7734C32.2513 38.6302 32.7331 38.5911 33.2148 38.6562C33.6966 38.7214 34.1003 38.819 34.4258 38.9492C34.4258 38.4544 34.25 38.0833 33.8984 37.8359C33.5469 37.5885 33.1628 37.3997 32.7461 37.2695C32.3424 37.1393 31.9453 37.1263 31.5547 37.2305C31.1641 37.3346 30.7995 37.3997 30.4609 37.4258L29.9922 37.1914C29.8359 37.0091 29.7708 36.7747 29.7969 36.4883L30.0312 36.0586C30.3958 35.8242 30.806 35.6875 31.2617 35.6484C31.7174 35.6094 32.1667 35.6289 32.6094 35.707C33.0651 35.7852 33.6315 35.9935 34.3086 36.332C34.9857 36.6706 35.4674 37.1719 35.7539 37.8359C36.0404 38.5 36.1901 39.5872 36.2031 41.0977C36.2161 42.6081 36.5091 44.0469 37.082 45.4141L36.8867 45.8047C36.7044 45.9349 36.5091 46.013 36.3008 46.0391ZM34.3867 44.1445L34.9336 43.6758C34.8555 43.207 34.8034 42.7839 34.7773 42.4062C34.7513 42.0286 34.7253 41.6445 34.6992 41.2539C34.1393 40.5638 33.5404 40.2318 32.9023 40.2578C32.2643 40.2708 31.8086 40.4141 31.5352 40.6875C31.2617 40.9609 31.0859 41.2865 31.0078 41.6641C30.9297 42.0417 30.9102 42.4128 30.9492 42.7773C30.9883 43.1419 31.1315 43.4479 31.3789 43.6953C31.6263 43.9427 31.9323 44.1445 32.2969 44.3008C32.6615 44.444 33.0326 44.4896 33.4102 44.4375C33.7878 44.3724 34.1133 44.2747 34.3867 44.1445ZM45.6758 45.9219L45.2852 45.7266C45.0508 45.388 44.9727 44.9974 45.0508 44.5547C45.1029 44.0208 45.1484 43.5065 45.1875 43.0117C45.2266 42.5169 45.2396 42.0221 45.2266 41.5273C45.2135 41.0326 45.1354 40.5833 44.9922 40.1797C44.849 39.776 44.6341 39.431 44.3477 39.1445C44.0612 38.8581 43.7292 38.7409 43.3516 38.793C42.987 38.8451 42.6615 39.0599 42.375 39.4375C42.0885 39.8151 41.7891 40.2383 41.4766 40.707C41.1641 41.1758 40.9688 41.6966 40.8906 42.2695V44.1836L40.9297 44.7109L40.7344 45.1016C40.5521 45.2578 40.3177 45.3229 40.0312 45.2969L39.6406 45.1016C39.3802 43.8125 39.224 42.5039 39.1719 41.1758C39.1198 39.8477 39.0417 38.5326 38.9375 37.2305C38.9635 37.0221 39.0417 36.8398 39.1719 36.6836C39.3542 36.5273 39.5885 36.4622 39.875 36.4883L40.2656 36.6836C40.3958 37.0742 40.474 37.4844 40.5 37.9141C40.526 38.3438 40.5521 38.7799 40.5781 39.2227C40.8646 38.8581 41.151 38.5195 41.4375 38.207C41.724 37.8945 42.069 37.6341 42.4727 37.4258C42.8893 37.2174 43.3711 37.1589 43.918 37.25C44.4648 37.3411 44.9596 37.6016 45.4023 38.0312C45.8451 38.4609 46.1771 38.9688 46.3984 39.5547C46.6328 40.1406 46.724 40.9805 46.6719 42.0742C46.6328 43.168 46.6133 43.9557 46.6133 44.4375C46.6133 44.9062 46.5352 45.3359 46.3789 45.7266C46.1966 45.8828 45.9622 45.9479 45.6758 45.9219Z" fill="#2D97D2"/>
<path d="M9.875 45.8828L9.65139 46.33L9.73578 46.3722L9.82973 46.3808L9.875 45.8828ZM9.48438 45.6875L9.07751 45.9781L9.14969 46.0792L9.26077 46.1347L9.48438 45.6875ZM9.25 45.0625L8.81064 44.8238L8.73573 44.9617L8.75306 45.1177L9.25 45.0625ZM10.8516 41.8008L10.3942 41.5987L10.8516 41.8008ZM11.9844 38.3633L12.4725 38.4717L12.5039 38.3305L12.455 38.1943L11.9844 38.3633ZM10.8125 35.3359L10.3508 35.5278L10.8125 35.3359ZM9.5625 32.2891L9.06636 32.227L9.05022 32.3562L9.09908 32.4768L9.5625 32.2891ZM9.79688 31.7422L9.47148 31.3626L9.43962 31.3899L9.41276 31.4221L9.79688 31.7422ZM10.5 31.5469L10.7236 31.0997L10.6392 31.0575L10.5453 31.0489L10.5 31.5469ZM10.8906 31.7422L11.3409 31.5248L11.2668 31.3712L11.1142 31.295L10.8906 31.7422ZM11.9453 34.0469L11.4865 34.2457L11.4878 34.2485L11.9453 34.0469ZM12.8438 36.3711L12.3694 36.5292L12.793 37.8L13.3057 36.5625L12.8438 36.3711ZM14.0742 33.6758L14.5214 33.8994L14.5227 33.8968L14.0742 33.6758ZM15.4023 31.0391L15.0731 30.6628L15.0015 30.7255L14.9579 30.8101L15.4023 31.0391ZM16.1445 30.8047L16.3681 30.3575L16.2838 30.3153L16.1898 30.3067L16.1445 30.8047ZM16.5352 31L16.9352 30.7L16.8643 30.6056L16.7588 30.5528L16.5352 31ZM16.7305 31.7422L17.1777 31.9658L17.2199 31.8814L17.2284 31.7875L16.7305 31.7422ZM15.1289 35.1016L15.5832 35.3104L15.5841 35.3085L15.1289 35.1016ZM13.6836 38.5586L13.2159 38.3819L13.1531 38.5481L13.2093 38.7167L13.6836 38.5586ZM16.3398 45.0234L16.7871 45.247L16.8729 45.0754L16.8218 44.8905L16.3398 45.0234ZM16.1445 45.4141L16.4699 45.7937L16.5466 45.728L16.5917 45.6377L16.1445 45.4141ZM15.4414 45.6094L15.2178 46.0566L15.3022 46.0988L15.3961 46.1073L15.4414 45.6094ZM15.0508 45.4141L14.5973 45.6246L14.6709 45.7831L14.8272 45.8613L15.0508 45.4141ZM13.9961 43.207L13.5458 43.4244L13.5473 43.4275L13.9961 43.207ZM12.9609 40.9414L13.4201 40.7435L12.9644 39.6862L12.5029 40.741L12.9609 40.9414ZM11.8281 43.3828L12.2753 43.6064L12.2768 43.6035L11.8281 43.3828ZM10.5781 45.6875L10.9035 46.0671L10.9671 46.0126L11.0095 45.9404L10.5781 45.6875ZM10.0986 45.4356L9.70798 45.2403L9.26077 46.1347L9.65139 46.33L10.0986 45.4356ZM9.89124 45.3969C9.81331 45.2878 9.76407 45.1614 9.74694 45.0073L8.75306 45.1177C8.78802 45.4323 8.89502 45.7226 9.07751 45.9781L9.89124 45.3969ZM9.68936 45.3012C10.2689 44.2343 10.8087 43.1348 11.3089 42.0029L10.3942 41.5987C9.90481 42.7063 9.37694 43.7813 8.81064 44.8238L9.68936 45.3012ZM11.3089 42.0029C11.8167 40.8536 12.2048 39.6764 12.4725 38.4717L11.4963 38.2548C11.2431 39.3939 10.876 40.5084 10.3942 41.5987L11.3089 42.0029ZM12.455 38.1943C12.0876 37.171 11.694 36.1542 11.2742 35.1441L10.3508 35.5278C10.7643 36.5229 11.152 37.5244 11.5138 38.5322L12.455 38.1943ZM11.2742 35.1441C10.8581 34.1429 10.442 33.1286 10.0259 32.1013L9.09908 32.4768C9.51629 33.5068 9.93353 34.5238 10.3508 35.5278L11.2742 35.1441ZM10.0586 32.3511C10.0732 32.2345 10.1141 32.1425 10.181 32.0623L9.41276 31.4221C9.21923 31.6543 9.10387 31.927 9.06636 32.227L10.0586 32.3511ZM10.1223 32.1218C10.1821 32.0705 10.2741 32.0284 10.4547 32.0448L10.5453 31.0489C10.153 31.0133 9.77624 31.1013 9.47148 31.3626L10.1223 32.1218ZM10.2764 31.9941L10.667 32.1894L11.1142 31.295L10.7236 31.0997L10.2764 31.9941ZM10.4403 31.9596C10.8019 32.7085 11.1507 33.4706 11.4865 34.2457L12.4041 33.8481C12.0629 33.0607 11.7085 32.2862 11.3409 31.5248L10.4403 31.9596ZM11.4878 34.2485C11.8202 35.0028 12.114 35.763 12.3694 36.5292L13.3181 36.213C13.0527 35.4167 12.7475 34.6274 12.4029 33.8452L11.4878 34.2485ZM13.3057 36.5625C13.6787 35.662 14.084 34.7743 14.5214 33.8994L13.627 33.4522C13.179 34.3481 12.764 35.2573 12.3818 36.1797L13.3057 36.5625ZM14.5227 33.8968C14.9642 33.0009 15.4055 32.1247 15.8468 31.268L14.9579 30.8101C14.5137 31.6722 14.0697 32.5538 13.6257 33.4548L14.5227 33.8968ZM15.7316 31.4154C15.8326 31.327 15.943 31.2884 16.0993 31.3026L16.1898 30.3067C15.7731 30.2689 15.3888 30.3865 15.0731 30.6628L15.7316 31.4154ZM15.9209 31.2519L16.3115 31.4472L16.7588 30.5528L16.3681 30.3575L15.9209 31.2519ZM16.1352 31.3C16.2092 31.3987 16.2486 31.5198 16.2325 31.6969L17.2284 31.7875C17.2644 31.3917 17.1736 31.018 16.9352 30.7L16.1352 31.3ZM16.2833 31.5186C15.7335 32.618 15.197 33.7434 14.6737 34.8947L15.5841 35.3085C16.1024 34.1681 16.6336 33.0539 17.1777 31.9658L16.2833 31.5186ZM14.6746 34.8927C14.1489 36.0361 13.6627 37.1992 13.2159 38.3819L14.1513 38.7353C14.5899 37.5742 15.0672 36.4326 15.5832 35.3104L14.6746 34.8927ZM13.2093 38.7167C13.5825 39.8366 14.0489 40.9291 14.6081 41.9941L15.4935 41.5293C14.9589 40.511 14.5138 39.4681 14.1579 38.4005L13.2093 38.7167ZM14.6081 41.9941C15.1384 43.0042 15.5549 44.0581 15.8578 45.1564L16.8218 44.8905C16.4998 43.7232 16.057 42.6026 15.4935 41.5293L14.6081 41.9941ZM15.8926 44.7998L15.6973 45.1905L16.5917 45.6377L16.7871 45.247L15.8926 44.7998ZM15.8191 45.0344C15.7593 45.0857 15.6673 45.1278 15.4867 45.1114L15.3961 46.1073C15.7884 46.143 16.1652 46.0549 16.4699 45.7937L15.8191 45.0344ZM15.665 45.1622L15.2744 44.9668L14.8272 45.8613L15.2178 46.0566L15.665 45.1622ZM15.5043 45.2035C15.1642 44.4709 14.811 43.732 14.4449 42.9866L13.5473 43.4275C13.9103 44.1665 14.2603 44.8989 14.5973 45.6246L15.5043 45.2035ZM14.4464 42.9897C14.0848 42.2407 13.7427 41.492 13.4201 40.7435L12.5018 41.1393C12.8302 41.9012 13.1782 42.6629 13.5458 43.4244L14.4464 42.9897ZM12.5029 40.741C12.1412 41.5677 11.7667 42.3747 11.3795 43.1622L12.2768 43.6035C12.6708 42.8023 13.0515 41.9818 13.419 41.1418L12.5029 40.741ZM11.3809 43.1592C10.9953 43.9305 10.5839 44.689 10.1468 45.4346L11.0095 45.9404C11.4578 45.1756 11.8797 44.3976 12.2753 43.6064L11.3809 43.1592ZM10.2527 45.3079C10.1929 45.3592 10.1009 45.4013 9.92027 45.3849L9.82973 46.3808C10.222 46.4164 10.5988 46.3283 10.9035 46.0671L10.2527 45.3079ZM26.1836 46.1562L25.96 46.6035L26.0444 46.6457L26.1383 46.6542L26.1836 46.1562ZM25.793 45.9609L25.354 46.2004L25.4291 46.338L25.5694 46.4082L25.793 45.9609ZM25.4805 45.043L24.9867 45.122L25.4805 45.043ZM25.3242 44.0273L25.8188 43.9541L25.6488 42.8063L24.9313 43.7181L25.3242 44.0273ZM23.5078 45.5898L23.3133 45.1292L23.3096 45.1308L23.5078 45.5898ZM20.3047 44.9258L19.9237 45.2496L19.9278 45.2543L20.3047 44.9258ZM19.1328 38.7148L18.6338 38.6837L18.6331 38.6941L18.6329 38.7046L19.1328 38.7148ZM19.4844 37.6211L19.1551 37.2448L19.1052 37.2885L19.0683 37.3437L19.4844 37.6211ZM20.2266 37.3867L20.4502 36.9395L20.3658 36.8973L20.2718 36.8888L20.2266 37.3867ZM20.6172 37.582L21.0172 37.282L20.9464 37.1876L20.8408 37.1348L20.6172 37.582ZM20.8125 38.3242L21.3104 38.3699L21.3104 38.3695L20.8125 38.3242ZM20.6562 41.4492L20.1575 41.4866L20.1587 41.499L20.6562 41.4492ZM22.5703 44.2422L22.4387 43.7598L22.4349 43.7609L22.5703 44.2422ZM23.8789 43.168L23.4768 42.8708L23.8789 43.168ZM24.7383 40.8828L24.2432 40.8131L24.7383 40.8828ZM25.3242 38.207L24.9988 37.8274L24.888 37.9224L24.8457 38.062L25.3242 38.207ZM26.0273 38.0117L26.2509 37.5645L26.1666 37.5223L26.0726 37.5138L26.0273 38.0117ZM26.418 38.207L26.8591 37.9717L26.7841 37.8311L26.6416 37.7598L26.418 38.207ZM26.6133 39.5742L26.1188 39.5L26.1129 39.5398L26.1133 39.58L26.6133 39.5742ZM26.8086 43.8516L26.3163 43.9391L26.3167 43.941L26.8086 43.8516ZM27.082 45.5703L27.5292 45.7939L27.5983 45.6558L27.5774 45.5028L27.082 45.5703ZM26.8867 45.9609L27.2121 46.3406L27.2888 46.2749L27.3339 46.1845L26.8867 45.9609ZM26.4072 45.709L26.0166 45.5137L25.5694 46.4082L25.96 46.6035L26.4072 45.709ZM26.2319 45.7215C26.1032 45.4855 26.0174 45.2339 25.9742 44.964L24.9867 45.122C25.0477 45.5031 25.1702 45.8634 25.354 46.2004L26.2319 45.7215ZM25.9742 44.964C25.9224 44.6405 25.8706 44.3039 25.8188 43.9541L24.8296 44.1006C24.882 44.4539 24.9343 44.7944 24.9867 45.122L25.9742 44.964ZM24.9313 43.7181C24.3308 44.4813 23.7885 44.9286 23.3133 45.1292L23.7023 46.0505C24.399 45.7563 25.0676 45.162 25.7172 44.3365L24.9313 43.7181ZM23.3096 45.1308C22.8152 45.3443 22.3453 45.405 21.8889 45.3307L21.7283 46.3177C22.3917 46.4257 23.0546 46.3302 23.706 46.0489L23.3096 45.1308ZM21.8889 45.3307C21.4648 45.2617 21.0627 45.0344 20.6816 44.5972L19.9278 45.2543C20.4321 45.8328 21.0326 46.2045 21.7283 46.3177L21.8889 45.3307ZM20.6857 44.602C20.2849 44.1304 20.0414 43.6603 19.9323 43.1914L18.9583 43.4179C19.1097 44.0689 19.4391 44.6795 19.9237 45.2496L20.6857 44.602ZM19.9323 43.1914C19.8079 42.6564 19.7203 42.0942 19.6701 41.5045L18.6737 41.5893C18.7277 42.2235 18.8223 42.8332 18.9583 43.4179L19.9323 43.1914ZM19.6701 41.5045C19.6203 40.9201 19.6067 39.998 19.6327 38.725L18.6329 38.7046C18.6068 39.9838 18.6192 40.9497 18.6737 41.5893L19.6701 41.5045ZM19.6318 38.746C19.653 38.4072 19.7462 38.1297 19.9004 37.8984L19.0683 37.3437C18.8058 37.7375 18.6647 38.1891 18.6338 38.6837L19.6318 38.746ZM19.8136 37.9974C19.9146 37.909 20.0251 37.8705 20.1813 37.8847L20.2718 36.8888C19.8551 36.8509 19.4708 36.9686 19.1551 37.2448L19.8136 37.9974ZM20.003 37.8339L20.3936 38.0292L20.8408 37.1348L20.4502 36.9395L20.003 37.8339ZM20.2172 37.882C20.2912 37.9807 20.3307 38.1018 20.3146 38.279L21.3104 38.3695C21.3464 37.9737 21.2557 37.6 21.0172 37.282L20.2172 37.882ZM20.3146 38.2786C20.172 39.834 20.115 40.9173 20.1576 41.4866L21.1549 41.4118C21.1194 40.9395 21.1665 39.9395 21.3104 38.3699L20.3146 38.2786ZM20.1587 41.499C20.2131 42.0428 20.3021 42.5459 20.4278 43.0066L21.3925 42.7434C21.2838 42.3447 21.2036 41.8973 21.1538 41.3995L20.1587 41.499ZM20.4278 43.0066C20.5652 43.5104 20.806 43.9503 21.1543 44.3144L21.8769 43.6231C21.6523 43.3883 21.4895 43.099 21.3925 42.7434L20.4278 43.0066ZM21.1543 44.3144C21.3525 44.5216 21.5908 44.6737 21.8687 44.7457C22.1452 44.8174 22.4286 44.8015 22.7057 44.7235L22.4349 43.7609C22.2954 43.8001 22.1946 43.7972 22.1196 43.7777C22.0459 43.7586 21.9652 43.7154 21.8769 43.6231L21.1543 44.3144ZM22.7019 44.7246C23.2918 44.5637 23.8125 44.0989 24.281 43.4652L23.4768 42.8708C23.0599 43.4349 22.7082 43.6863 22.4388 43.7598L22.7019 44.7246ZM24.281 43.4652C24.7841 42.7844 25.0945 41.9389 25.2334 40.9525L24.2432 40.8131C24.1217 41.6757 23.8591 42.3536 23.4768 42.8708L24.281 43.4652ZM25.2334 40.9525C25.3602 40.0525 25.5501 39.1858 25.8027 38.352L24.8457 38.062C24.5775 38.947 24.3768 39.8641 24.2432 40.8131L25.2334 40.9525ZM25.6496 38.5867C25.7094 38.5354 25.8014 38.4932 25.9821 38.5097L26.0726 37.5138C25.6803 37.4781 25.3036 37.5662 24.9988 37.8274L25.6496 38.5867ZM25.8037 38.4589L26.1944 38.6542L26.6416 37.7598L26.2509 37.5645L25.8037 38.4589ZM25.9768 38.4423C26.1255 38.7212 26.1841 39.0647 26.1188 39.5L27.1077 39.6484C27.1987 39.0421 27.1271 38.4741 26.8591 37.9717L25.9768 38.4423ZM26.1133 39.58C26.1392 41.8315 26.2034 43.3037 26.3163 43.9391L27.3009 43.764C27.2055 43.2275 27.1395 41.8482 27.1132 39.5685L26.1133 39.58ZM26.3167 43.941C26.4195 44.5067 26.5095 45.0723 26.5866 45.6379L27.5774 45.5028C27.4983 44.9225 27.406 44.3423 27.3005 43.7621L26.3167 43.941ZM26.6348 45.3467L26.4395 45.7373L27.3339 46.1845L27.5292 45.7939L26.6348 45.3467ZM26.5613 45.5813C26.5015 45.6326 26.4095 45.6747 26.2289 45.6583L26.1383 46.6542C26.5306 46.6899 26.9074 46.6018 27.2121 46.3406L26.5613 45.5813ZM36.3008 46.0391L36.2388 46.5352L36.3008 46.543L36.3628 46.5352L36.3008 46.0391ZM35.7539 45.8047L35.3321 46.0731L35.3739 46.1389L35.4338 46.1888L35.7539 45.8047ZM35.4805 45.375L35.9023 45.1066L35.6659 44.7351L35.2676 44.9226L35.4805 45.375ZM32.8633 45.9805L32.8498 46.4803L32.8501 46.4803L32.8633 45.9805ZM30.2461 44.7695L29.8987 45.1293L29.9054 45.1355L30.2461 44.7695ZM29.7383 40.6094L30.1994 40.8027L29.7383 40.6094ZM33.2148 38.6562L33.1479 39.1517L33.2148 38.6562ZM34.4258 38.9492L34.2401 39.4135L34.9258 39.6877V38.9492H34.4258ZM32.7461 37.2695L32.5926 37.7454L32.597 37.7468L32.7461 37.2695ZM30.4609 37.4258L30.2373 37.873L30.3612 37.9349L30.4993 37.9243L30.4609 37.4258ZM29.9922 37.1914L29.6126 37.5168L29.6783 37.5935L29.7686 37.6386L29.9922 37.1914ZM29.7969 36.4883L29.3579 36.2489L29.3083 36.3398L29.2989 36.443L29.7969 36.4883ZM30.0312 36.0586L29.7609 35.638L29.6535 35.7071L29.5923 35.8192L30.0312 36.0586ZM32.6094 35.707L32.5225 36.1994L32.5249 36.1998L32.6094 35.707ZM34.3086 36.332L34.085 36.7792L34.3086 36.332ZM37.082 45.4141L37.5292 45.6377L37.6319 45.4324L37.5432 45.2208L37.082 45.4141ZM36.8867 45.8047L37.1773 46.2116L37.2784 46.1394L37.3339 46.0283L36.8867 45.8047ZM34.3867 44.1445L34.6017 44.596L34.6617 44.5674L34.7121 44.5242L34.3867 44.1445ZM34.9336 43.6758L35.259 44.0554L35.4732 43.8718L35.4268 43.5936L34.9336 43.6758ZM34.6992 41.2539L35.1981 41.2206L35.1875 41.0622L35.0875 40.9389L34.6992 41.2539ZM32.9023 40.2578L32.9125 40.7578L32.9227 40.7574L32.9023 40.2578ZM31.3789 43.6953L31.7325 43.3418L31.3789 43.6953ZM32.2969 44.3008L32.0999 44.7604L32.1069 44.7634L32.114 44.7662L32.2969 44.3008ZM33.4102 44.4375L33.4785 44.9328L33.4868 44.9317L33.4951 44.9302L33.4102 44.4375ZM36.3628 45.5429C36.2462 45.5283 36.1543 45.4875 36.074 45.4206L35.4338 46.1888C35.6661 46.3823 35.9387 46.4977 36.2388 46.5352L36.3628 45.5429ZM36.1757 45.5362L35.9023 45.1066L35.0586 45.6434L35.3321 46.0731L36.1757 45.5362ZM35.2676 44.9226C34.8484 45.1198 34.4547 45.2645 34.086 45.3596L34.3359 46.3279C34.7744 46.2147 35.2271 46.0468 35.6934 45.8274L35.2676 44.9226ZM34.086 45.3596C33.7349 45.4502 33.3331 45.4927 32.8764 45.4806L32.8501 46.4803C33.383 46.4943 33.8797 46.4456 34.3359 46.3279L34.086 45.3596ZM32.8768 45.4807C32.4701 45.4697 32.0793 45.3713 31.7002 45.1817L31.253 46.0761C31.7592 46.3292 32.293 46.4652 32.8498 46.4803L32.8768 45.4807ZM31.7002 45.1817C31.302 44.9826 30.9309 44.724 30.5868 44.4036L29.9054 45.1355C30.3165 45.5182 30.7658 45.8325 31.253 46.0761L31.7002 45.1817ZM30.5934 44.4098C30.2823 44.1095 30.0848 43.7638 29.9904 43.3652L29.0174 43.5957C29.1574 44.1868 29.4547 44.7004 29.8988 45.1292L30.5934 44.4098ZM29.9904 43.3652C29.8862 42.9251 29.8572 42.48 29.9036 42.0276L28.9089 41.9255C28.8511 42.4888 28.8872 43.0463 29.0174 43.5957L29.9904 43.3652ZM29.9036 42.0276C29.9515 41.5608 30.052 41.1542 30.1994 40.8027L29.2772 40.416C29.086 40.8719 28.9652 41.3767 28.9089 41.9255L29.9036 42.0276ZM30.1994 40.8027C30.3394 40.4688 30.5582 40.153 30.8664 39.8563L30.1727 39.1359C29.7778 39.5163 29.4757 39.9427 29.2772 40.416L30.1994 40.8027ZM30.8664 39.8563C31.1586 39.5749 31.5045 39.3738 31.912 39.2527L31.627 38.2942C31.071 38.4595 30.5836 38.7402 30.1727 39.1359L30.8664 39.8563ZM31.912 39.2527C32.3283 39.129 32.7387 39.0964 33.1479 39.1517L33.2818 38.1608C32.7275 38.0858 32.1743 38.1315 31.627 38.2942L31.912 39.2527ZM33.1479 39.1517C33.6034 39.2133 33.9642 39.3031 34.2401 39.4135L34.6115 38.485C34.2363 38.3349 33.7899 38.2294 33.2818 38.1608L33.1479 39.1517ZM34.9258 38.9492C34.9258 38.32 34.6924 37.7833 34.1862 37.427L33.6107 38.2448C33.8076 38.3834 33.9258 38.5888 33.9258 38.9492H34.9258ZM34.1862 37.427C33.7916 37.1493 33.3606 36.9377 32.8952 36.7923L32.597 37.7468C32.9649 37.8618 33.3022 38.0277 33.6107 38.2448L34.1862 37.427ZM32.8996 36.7937C32.4092 36.6355 31.914 36.6172 31.4259 36.7474L31.6835 37.7136C31.9766 37.6354 32.2757 37.6432 32.5926 37.7454L32.8996 36.7937ZM31.4259 36.7474C31.0594 36.8451 30.7254 36.904 30.4226 36.9273L30.4993 37.9243C30.8735 37.8955 31.2687 37.8242 31.6835 37.7136L31.4259 36.7474ZM30.6845 36.9786L30.2158 36.7442L29.7686 37.6386L30.2373 37.873L30.6845 36.9786ZM30.3718 36.866C30.3205 36.8062 30.2784 36.7142 30.2948 36.5335L29.2989 36.443C29.2633 36.8353 29.3513 37.212 29.6126 37.5168L30.3718 36.866ZM30.2358 36.7277L30.4702 36.298L29.5923 35.8192L29.3579 36.2489L30.2358 36.7277ZM30.3016 36.4792C30.594 36.2913 30.9251 36.1791 31.3044 36.1466L31.219 35.1503C30.6868 35.1959 30.1977 35.3572 29.7609 35.638L30.3016 36.4792ZM31.3044 36.1466C31.7176 36.1112 32.1233 36.129 32.5225 36.1994L32.6963 35.2146C32.21 35.1288 31.7173 35.1076 31.219 35.1503L31.3044 36.1466ZM32.5249 36.1998C32.9114 36.2661 33.4276 36.4506 34.085 36.7792L34.5322 35.8848C33.8354 35.5364 33.2188 35.3042 32.6939 35.2142L32.5249 36.1998ZM34.085 36.7792C34.662 37.0678 35.0573 37.4835 35.2948 38.034L36.213 37.6379C35.8776 36.8602 35.3093 36.2734 34.5322 35.8848L34.085 36.7792ZM35.2948 38.034C35.5391 38.6003 35.6902 39.6014 35.7031 41.102L36.7031 41.0933C36.69 39.5731 36.5416 38.3997 36.213 37.6379L35.2948 38.034ZM35.7031 41.102C35.7167 42.676 36.0224 44.1791 36.6209 45.6073L37.5432 45.2208C36.9958 43.9146 36.7156 42.5401 36.7031 41.0933L35.7031 41.102ZM36.6348 45.1905L36.4395 45.5811L37.3339 46.0283L37.5292 45.6377L36.6348 45.1905ZM36.5961 45.3978C36.4767 45.4831 36.3592 45.5279 36.2388 45.5429L36.3628 46.5352C36.6591 46.4982 36.9321 46.3867 37.1773 46.2116L36.5961 45.3978ZM34.7121 44.5242L35.259 44.0554L34.6082 43.2962L34.0613 43.7649L34.7121 44.5242ZM35.4268 43.5936C35.3507 43.1369 35.3009 42.73 35.2762 42.3718L34.2785 42.4407C34.3059 42.8377 34.3603 43.2772 34.4404 43.758L35.4268 43.5936ZM35.2762 42.3718C35.2501 41.9946 35.2241 41.6109 35.1981 41.2206L34.2003 41.2872C34.2264 41.6782 34.2525 42.0627 34.2785 42.4407L35.2762 42.3718ZM35.0875 40.9389C34.4698 40.1775 33.7337 39.7235 32.882 39.7582L32.9227 40.7574C33.347 40.7401 33.8089 40.9501 34.3109 41.5689L35.0875 40.9389ZM32.8921 39.7579C32.2043 39.772 31.5901 39.9254 31.1816 40.3339L31.8887 41.0411C32.0271 40.9027 32.3244 40.7697 32.9125 40.7577L32.8921 39.7579ZM31.1816 40.3339C30.8394 40.6762 30.6161 41.0893 30.5182 41.5628L31.4974 41.7654C31.5557 41.4836 31.6841 41.2457 31.8887 41.0411L31.1816 40.3339ZM30.5182 41.5628C30.4301 41.9885 30.4072 42.4118 30.4521 42.8306L31.4464 42.7241C31.4131 42.4137 31.4293 42.0948 31.4974 41.7654L30.5182 41.5628ZM30.4521 42.8306C30.5027 43.3029 30.6931 43.7166 31.0254 44.0489L31.7325 43.3418C31.5699 43.1792 31.4739 42.981 31.4464 42.7241L30.4521 42.8306ZM31.0254 44.0489C31.3233 44.3469 31.6846 44.5824 32.0999 44.7604L32.4938 43.8412C32.18 43.7067 31.9293 43.5386 31.7325 43.3418L31.0254 44.0489ZM32.114 44.7662C32.5561 44.9398 33.0136 44.9969 33.4785 44.9328L33.3418 43.9422C33.0515 43.9822 32.7668 43.9482 32.4797 43.8354L32.114 44.7662ZM33.4951 44.9302C33.9064 44.8593 34.2778 44.7502 34.6017 44.596L34.1718 43.6931C33.9488 43.7993 33.6691 43.8855 33.3252 43.9448L33.4951 44.9302ZM45.6758 45.9219L45.4522 46.3691L45.5366 46.4113L45.6305 46.4198L45.6758 45.9219ZM45.2852 45.7266L44.8741 46.0112L44.947 46.1165L45.0616 46.1738L45.2852 45.7266ZM45.0508 44.5547L45.5432 44.6416L45.5465 44.6225L45.5484 44.6032L45.0508 44.5547ZM43.3516 38.793L43.2832 38.2977L43.2809 38.298L43.3516 38.793ZM40.8906 42.2695L40.3952 42.202L40.3906 42.2356V42.2695H40.8906ZM40.8906 44.1836H40.3906V44.2021L40.392 44.2205L40.8906 44.1836ZM40.9297 44.7109L41.3769 44.9345L41.4385 44.8114L41.4283 44.674L40.9297 44.7109ZM40.7344 45.1016L41.0598 45.4812L41.1364 45.4155L41.1816 45.3252L40.7344 45.1016ZM40.0312 45.2969L39.8076 45.7441L39.892 45.7863L39.986 45.7948L40.0312 45.2969ZM39.6406 45.1016L39.1505 45.2006L39.1988 45.4397L39.417 45.5488L39.6406 45.1016ZM38.9375 37.2305L38.4414 37.1685L38.435 37.2193L38.4391 37.2703L38.9375 37.2305ZM39.1719 36.6836L38.8465 36.304L38.8146 36.3313L38.7878 36.3635L39.1719 36.6836ZM39.875 36.4883L40.0986 36.0411L40.0142 35.9989L39.9203 35.9903L39.875 36.4883ZM40.2656 36.6836L40.74 36.5255L40.6745 36.329L40.4892 36.2364L40.2656 36.6836ZM40.5 37.9141L40.0009 37.9443L40.5 37.9141ZM40.5781 39.2227L40.079 39.252L40.1564 40.5686L40.9713 39.5316L40.5781 39.2227ZM42.4727 37.4258L42.249 36.9785L42.2433 36.9815L42.4727 37.4258ZM46.3984 39.5547L45.9306 39.7314L45.9342 39.7404L46.3984 39.5547ZM46.6719 42.0742L46.1724 42.0504L46.1722 42.0564L46.6719 42.0742ZM46.3789 45.7266L46.7043 46.1062L46.7975 46.0263L46.8431 45.9123L46.3789 45.7266ZM45.8994 45.4747L45.5088 45.2793L45.0616 46.1738L45.4522 46.3691L45.8994 45.4747ZM45.6963 45.442C45.5441 45.2222 45.4856 44.9677 45.5432 44.6416L44.5584 44.4678C44.4597 45.0271 44.5575 45.5539 44.8741 46.0112L45.6963 45.442ZM45.5484 44.6032C45.6008 44.0666 45.6466 43.5492 45.6859 43.0511L44.6891 42.9724C44.6502 43.4639 44.605 43.9751 44.5531 44.5061L45.5484 44.6032ZM45.6859 43.0511C45.7264 42.5389 45.7399 42.0265 45.7264 41.5142L44.7267 41.5405C44.7393 42.0177 44.7267 42.495 44.6891 42.9724L45.6859 43.0511ZM45.7264 41.5142C45.7122 40.9749 45.6267 40.4727 45.4634 40.0125L44.521 40.3469C44.6441 40.694 44.7149 41.0902 44.7267 41.5405L45.7264 41.5142ZM45.4634 40.0125C45.2968 39.5428 45.0433 39.133 44.7012 38.791L43.9941 39.4981C44.225 39.729 44.4012 40.0092 44.521 40.3469L45.4634 40.0125ZM44.7012 38.791C44.3122 38.4019 43.8269 38.2227 43.2832 38.2977L43.4199 39.2883C43.6314 39.2591 43.8102 39.3142 43.9941 39.4981L44.7012 38.791ZM43.2809 38.298C42.7515 38.3736 42.3188 38.6842 41.9767 39.1353L42.7733 39.7397C43.0041 39.4356 43.2225 39.3165 43.4223 39.2879L43.2809 38.298ZM41.9767 39.1353C41.683 39.5223 41.3777 39.954 41.0605 40.4297L41.8926 40.9844C42.2005 40.5226 42.494 40.1079 42.7733 39.7397L41.9767 39.1353ZM41.0605 40.4297C40.7049 40.9631 40.4833 41.5561 40.3952 42.202L41.386 42.3371C41.4542 41.8372 41.6232 41.3884 41.8926 40.9844L41.0605 40.4297ZM40.3906 42.2695V44.1836H41.3906V42.2695H40.3906ZM40.392 44.2205L40.4311 44.7479L41.4283 44.674L41.3893 44.1467L40.392 44.2205ZM40.4825 44.4873L40.2872 44.878L41.1816 45.3252L41.3769 44.9345L40.4825 44.4873ZM40.409 44.7219C40.3492 44.7732 40.2572 44.8153 40.0765 44.7989L39.986 45.7948C40.3783 45.8305 40.755 45.7424 41.0598 45.4812L40.409 44.7219ZM40.2549 44.8497L39.8642 44.6543L39.417 45.5488L39.8076 45.7441L40.2549 44.8497ZM40.1307 45.0026C39.8757 43.7399 39.7225 42.4579 39.6715 41.1562L38.6723 41.1954C38.7254 42.5499 38.8848 43.8851 39.1505 45.2006L40.1307 45.0026ZM39.6715 41.1562C39.6191 39.8214 39.5406 38.4995 39.4359 37.1906L38.4391 37.2703C38.5427 38.5656 38.6204 39.8739 38.6723 41.1954L39.6715 41.1562ZM39.4336 37.2925C39.4482 37.1759 39.4891 37.0839 39.556 37.0037L38.7878 36.3635C38.5942 36.5957 38.4789 36.8684 38.4414 37.1685L39.4336 37.2925ZM39.4973 37.0632C39.5571 37.0119 39.6491 36.9698 39.8297 36.9862L39.9203 35.9903C39.528 35.9547 39.1512 36.0427 38.8465 36.304L39.4973 37.0632ZM39.6514 36.9355L40.042 37.1308L40.4892 36.2364L40.0986 36.0411L39.6514 36.9355ZM39.7913 36.8417C39.9071 37.1891 39.9774 37.5562 40.0009 37.9443L40.9991 37.8838C40.9705 37.4126 40.8846 36.9593 40.74 36.5255L39.7913 36.8417ZM40.0009 37.9443C40.0269 38.3737 40.053 38.8096 40.079 39.252L41.0773 39.1933C41.0512 38.7503 41.0251 38.3138 40.9991 37.8838L40.0009 37.9443ZM40.9713 39.5316C41.2506 39.176 41.5289 38.8472 41.8061 38.5449L41.0689 37.8692C40.7732 38.1918 40.4785 38.5401 40.185 38.9137L40.9713 39.5316ZM41.8061 38.5449C42.05 38.2788 42.3469 38.0534 42.702 37.8701L42.2433 36.9815C41.7911 37.2149 41.3979 37.5102 41.0689 37.8692L41.8061 38.5449ZM42.6963 37.873C43.0015 37.7204 43.3728 37.666 43.8358 37.7432L44.0002 36.7568C43.3694 36.6517 42.7772 36.7145 42.2491 36.9786L42.6963 37.873ZM43.8358 37.7432C44.2712 37.8158 44.6758 38.0228 45.0541 38.39L45.7506 37.6725C45.2435 37.1803 44.6585 36.8665 44.0002 36.7568L43.8358 37.7432ZM45.0541 38.39C45.4433 38.7677 45.7349 39.2131 45.9307 39.7314L46.8662 39.378C46.6193 38.7244 46.2468 38.1541 45.7506 37.6725L45.0541 38.39ZM45.9342 39.7404C46.1292 40.2278 46.2233 40.9831 46.1724 42.0504L47.1713 42.098C47.2247 40.9778 47.1364 40.0534 46.8627 39.369L45.9342 39.7404ZM46.1722 42.0564C46.1331 43.1505 46.1133 43.9461 46.1133 44.4375H47.1133C47.1133 43.9654 47.1325 43.1854 47.1716 42.0921L46.1722 42.0564ZM46.1133 44.4375C46.1133 44.8499 46.0447 45.2157 45.9147 45.5409L46.8431 45.9123C47.0256 45.4562 47.1133 44.9626 47.1133 44.4375H46.1133ZM46.0535 45.3469C45.9937 45.3982 45.9017 45.4403 45.7211 45.4239L45.6305 46.4198C46.0228 46.4555 46.3995 46.3674 46.7043 46.1062L46.0535 45.3469Z" fill="#2D97D2"/>
</g>
<g filter="url(#filter3_d_23_150)">
<path d="M37.0001 18.5L45.8312 11.9416L54.6623 5.38326" stroke="#A0C8F8" stroke-width="2" stroke-linecap="round"/>
</g>
<g filter="url(#filter4_d_23_150)">
<path d="M39.0001 23.7319L46.2255 18.366L53.451 13.0001" stroke="#F39B9B" stroke-width="2" stroke-linecap="round"/>
</g>
<defs>
<filter id="filter0_d_23_150" x="31.2067" y="4.98572" width="16.8453" height="13.5397" filterUnits="userSpaceOnUse" color-interpolation-filters="sRGB">
<feFlood flood-opacity="0" result="BackgroundImageFix"/>
<feColorMatrix in="SourceAlpha" type="matrix" values="0 0 0 0 0 0 0 0 0 0 0 0 0 0 0 0 0 0 127 0" result="hardAlpha"/>
<feOffset dx="1" dy="1"/>
<feGaussianBlur stdDeviation="0.5"/>
<feComposite in2="hardAlpha" operator="out"/>
<feColorMatrix type="matrix" values="0 0 0 0 1 0 0 0 0 1 0 0 0 0 1 0 0 0 0.25 0"/>
<feBlend mode="normal" in2="BackgroundImageFix" result="effect1_dropShadow_23_150"/>
<feBlend mode="normal" in="SourceGraphic" in2="effect1_dropShadow_23_150" result="shape"/>
</filter>
<filter id="filter1_d_23_150" x="16.4194" y="11.9656" width="27.3582" height="25.5961" filterUnits="userSpaceOnUse" color-interpolation-filters="sRGB">
<feFlood flood-opacity="0" result="BackgroundImageFix"/>
<feColorMatrix in="SourceAlpha" type="matrix" values="0 0 0 0 0 0 0 0 0 0 0 0 0 0 0 0 0 0 127 0" result="hardAlpha"/>
<feOffset dx="2"/>
<feGaussianBlur stdDeviation="2"/>
<feComposite in2="hardAlpha" operator="out"/>
<feColorMatrix type="matrix" values="0 0 0 0 1 0 0 0 0 1 0 0 0 0 1 0 0 0 0.25 0"/>
<feBlend mode="normal" in2="BackgroundImageFix" result="effect1_dropShadow_23_150"/>
<feBlend mode="normal" in="SourceGraphic" in2="effect1_dropShadow_23_150" result="shape"/>
</filter>
<filter id="filter2_d_23_150" x="9.25" y="30.7656" width="38.5" height="15.4297" filterUnits="userSpaceOnUse" color-interpolation-filters="sRGB">
<feFlood flood-opacity="0" result="BackgroundImageFix"/>
<feColorMatrix in="SourceAlpha" type="matrix" values="0 0 0 0 0 0 0 0 0 0 0 0 0 0 0 0 0 0 127 0" result="hardAlpha"/>
<feOffset dx="1"/>
<feComposite in2="hardAlpha" operator="out"/>
<feColorMatrix type="matrix" values="0 0 0 0 0 0 0 0 0 0 0 0 0 0 0 0 0 0 0.25 0"/>
<feBlend mode="normal" in2="BackgroundImageFix" result="effect1_dropShadow_23_150"/>
<feBlend mode="normal" in="SourceGraphic" in2="effect1_dropShadow_23_150" result="shape"/>
</filter>
<filter id="filter3_d_23_150" x="36" y="4.38318" width="21.6624" height="17.1169" filterUnits="userSpaceOnUse" color-interpolation-filters="sRGB">
<feFlood flood-opacity="0" result="BackgroundImageFix"/>
<feColorMatrix in="SourceAlpha" type="matrix" values="0 0 0 0 0 0 0 0 0 0 0 0 0 0 0 0 0 0 127 0" result="hardAlpha"/>
<feOffset dx="1" dy="1"/>
<feGaussianBlur stdDeviation="0.5"/>
<feComposite in2="hardAlpha" operator="out"/>
<feColorMatrix type="matrix" values="0 0 0 0 1 0 0 0 0 1 0 0 0 0 1 0 0 0 0.25 0"/>
<feBlend mode="normal" in2="BackgroundImageFix" result="effect1_dropShadow_23_150"/>
<feBlend mode="normal" in="SourceGraphic" in2="effect1_dropShadow_23_150" result="shape"/>
</filter>
<filter id="filter4_d_23_150" x="38" y="12" width="18.451" height="14.7321" filterUnits="userSpaceOnUse" color-interpolation-filters="sRGB">
<feFlood flood-opacity="0" result="BackgroundImageFix"/>
<feColorMatrix in="SourceAlpha" type="matrix" values="0 0 0 0 0 0 0 0 0 0 0 0 0 0 0 0 0 0 127 0" result="hardAlpha"/>
<feOffset dx="1" dy="1"/>
<feGaussianBlur stdDeviation="0.5"/>
<feComposite in2="hardAlpha" operator="out"/>
<feColorMatrix type="matrix" values="0 0 0 0 1 0 0 0 0 1 0 0 0 0 1 0 0 0 0.25 0"/>
<feBlend mode="normal" in2="BackgroundImageFix" result="effect1_dropShadow_23_150"/>
<feBlend mode="normal" in="SourceGraphic" in2="effect1_dropShadow_23_150" result="shape"/>
</filter>
</defs>
</svg>
